# xmcd
#
# Track frame offsets: 
#        150
#        23839
#        55503
#        82289
#        97837
#        123876
#        141679
#        156167
#        182857
#        200908
#        220207
#        238004
#        265235
#        279341
#
# Disc length: 3990 seconds
#
# Revision: 2
# Processed by: cddbd v1.5.2PL0 Copyright (c) Steve Scherf et al.
# Submitted via: ExactAudioCopy v0.95b3
#
DISCID=cf0f940e
DTITLE=U-Tek - Das Mass Der Dinge [FACT 3137]
DYEAR=2010
DGENRE=EBM
TTITLE0=Das Mass Der Dinge (Masslos Mix)
TTITLE1=Der Animateur
TTITLE2=Bete (Rote-Bete-Mix)
TTITLE3=Der Automatist
TTITLE4=Das Mass Der Dinge (Predominant Mix)
TTITLE5=Fairytale
TTITLE6=Suction (Shot Gun Mix)
TTITLE7=Zahlentanzer
TTITLE8=Tic Tac Toe
TTITLE9=Phase One
TTITLE10=Das Mass Der Dinge (Crashtest Mix)
TTITLE11=I Am Moving
TTITLE12=Contact
TTITLE13=Fever
EXTD=
EXTT0=
EXTT1=
EXTT2=
EXTT3=
EXTT4=
EXTT5=
EXTT6=
EXTT7=
EXTT8=
EXTT9=
EXTT10=
EXTT11=
EXTT12=
EXTT13=
PLAYORDER=
